ISO-10303-21;
HEADER;
/* Generated by software containing ST-Developer
 * from STEP Tools, Inc. (www.steptools.com) 
 */
/* OPTION: using custom renumber hook */

FILE_DESCRIPTION(
/* description */ ('STEP AP242 Edition 2',
'CAx-IF Rec.Pracs.---Representation and Presentation of Product Manufa
cturing Information (PMI)---4.0---2014-10-13',
'CAx-IF Rec.Pracs.---3D Tessellated Geometry---0.4---2014-09-14','2;1',
'CAx-IF Rec.Pracs.---User Defined Attributes---1.5---2016-08-15'),
/* implementation_level */ '2;1');

FILE_NAME(
/* name */ 'Part Studio 2',
/* time_stamp */ '2026-07-23T14:23:12Z',
/* author */ (''),
/* organization */ (''),
/* preprocessor_version */ 'ST-DEVELOPER v20',
/* originating_system */ 'ONSHAPE BY PTC INC, 1.218',
/* authorisation */ '  ');

FILE_SCHEMA (('AP242_MANAGED_MODEL_BASED_3D_ENGINEERING_MIM_LF { 1 0 10303 442 3 1 4 }'));
ENDSEC;

DATA;
#10=SHAPE_REPRESENTATION_RELATIONSHIP('','',#449,#11);
#11=ADVANCED_BREP_SHAPE_REPRESENTATION('',(#447),#731);
#12=CIRCLE('',#461,0.00315);
#13=CIRCLE('',#462,0.00315);
#14=CIRCLE('',#464,0.00315);
#15=CIRCLE('',#465,0.00315);
#16=CIRCLE('',#467,0.00315);
#17=CIRCLE('',#468,0.00315);
#18=CIRCLE('',#471,0.00215);
#19=CIRCLE('',#473,0.00215);
#20=CIRCLE('',#475,0.00215);
#21=CIRCLE('',#478,0.00215);
#22=CIRCLE('',#479,0.00215);
#23=CIRCLE('',#482,0.00215);
#24=CYLINDRICAL_SURFACE('',#460,0.00315);
#25=CYLINDRICAL_SURFACE('',#463,0.00315);
#26=CYLINDRICAL_SURFACE('',#466,0.00315);
#27=CYLINDRICAL_SURFACE('',#474,0.00215);
#28=CYLINDRICAL_SURFACE('',#477,0.00215);
#29=CYLINDRICAL_SURFACE('',#481,0.00215);
#30=ORIENTED_EDGE('',*,*,#134,.T.);
#31=ORIENTED_EDGE('',*,*,#135,.T.);
#32=ORIENTED_EDGE('',*,*,#136,.F.);
#33=ORIENTED_EDGE('',*,*,#137,.F.);
#34=ORIENTED_EDGE('',*,*,#138,.T.);
#35=ORIENTED_EDGE('',*,*,#139,.T.);
#36=ORIENTED_EDGE('',*,*,#140,.F.);
#37=ORIENTED_EDGE('',*,*,#141,.F.);
#38=ORIENTED_EDGE('',*,*,#142,.T.);
#39=ORIENTED_EDGE('',*,*,#143,.F.);
#40=ORIENTED_EDGE('',*,*,#144,.F.);
#41=ORIENTED_EDGE('',*,*,#145,.T.);
#42=ORIENTED_EDGE('',*,*,#146,.F.);
#43=ORIENTED_EDGE('',*,*,#147,.T.);
#44=ORIENTED_EDGE('',*,*,#148,.T.);
#45=ORIENTED_EDGE('',*,*,#149,.T.);
#46=ORIENTED_EDGE('',*,*,#150,.F.);
#47=ORIENTED_EDGE('',*,*,#151,.F.);
#48=ORIENTED_EDGE('',*,*,#152,.T.);
#49=ORIENTED_EDGE('',*,*,#153,.F.);
#50=ORIENTED_EDGE('',*,*,#154,.F.);
#51=ORIENTED_EDGE('',*,*,#155,.T.);
#52=ORIENTED_EDGE('',*,*,#154,.T.);
#53=ORIENTED_EDGE('',*,*,#156,.T.);
#54=ORIENTED_EDGE('',*,*,#134,.F.);
#55=ORIENTED_EDGE('',*,*,#157,.F.);
#56=ORIENTED_EDGE('',*,*,#136,.T.);
#57=ORIENTED_EDGE('',*,*,#158,.F.);
#58=ORIENTED_EDGE('',*,*,#152,.F.);
#59=ORIENTED_EDGE('',*,*,#159,.T.);
#60=ORIENTED_EDGE('',*,*,#155,.F.);
#61=ORIENTED_EDGE('',*,*,#157,.T.);
#62=ORIENTED_EDGE('',*,*,#137,.T.);
#63=ORIENTED_EDGE('',*,*,#159,.F.);
#64=ORIENTED_EDGE('',*,*,#160,.T.);
#65=ORIENTED_EDGE('',*,*,#161,.F.);
#66=ORIENTED_EDGE('',*,*,#162,.F.);
#67=ORIENTED_EDGE('',*,*,#163,.T.);
#68=ORIENTED_EDGE('',*,*,#164,.F.);
#69=ORIENTED_EDGE('',*,*,#165,.T.);
#70=ORIENTED_EDGE('',*,*,#146,.T.);
#71=ORIENTED_EDGE('',*,*,#145,.F.);
#72=ORIENTED_EDGE('',*,*,#166,.F.);
#73=ORIENTED_EDGE('',*,*,#161,.T.);
#74=ORIENTED_EDGE('',*,*,#160,.F.);
#75=ORIENTED_EDGE('',*,*,#167,.T.);
#76=ORIENTED_EDGE('',*,*,#164,.T.);
#77=ORIENTED_EDGE('',*,*,#163,.F.);
#78=ORIENTED_EDGE('',*,*,#168,.F.);
#79=ORIENTED_EDGE('',*,*,#143,.T.);
#80=ORIENTED_EDGE('',*,*,#142,.F.);
#81=ORIENTED_EDGE('',*,*,#169,.T.);
#82=ORIENTED_EDGE('',*,*,#170,.F.);
#83=ORIENTED_EDGE('',*,*,#171,.T.);
#84=ORIENTED_EDGE('',*,*,#172,.F.);
#85=ORIENTED_EDGE('',*,*,#173,.T.);
#86=ORIENTED_EDGE('',*,*,#174,.F.);
#87=ORIENTED_EDGE('',*,*,#175,.T.);
#88=ORIENTED_EDGE('',*,*,#174,.T.);
#89=ORIENTED_EDGE('',*,*,#172,.T.);
#90=ORIENTED_EDGE('',*,*,#170,.T.);
#91=ORIENTED_EDGE('',*,*,#165,.F.);
#92=ORIENTED_EDGE('',*,*,#169,.F.);
#93=ORIENTED_EDGE('',*,*,#147,.F.);
#94=ORIENTED_EDGE('',*,*,#167,.F.);
#95=ORIENTED_EDGE('',*,*,#176,.T.);
#96=ORIENTED_EDGE('',*,*,#173,.F.);
#97=ORIENTED_EDGE('',*,*,#177,.T.);
#98=ORIENTED_EDGE('',*,*,#171,.F.);
#99=ORIENTED_EDGE('',*,*,#178,.T.);
#100=ORIENTED_EDGE('',*,*,#176,.F.);
#101=ORIENTED_EDGE('',*,*,#178,.F.);
#102=ORIENTED_EDGE('',*,*,#179,.T.);
#103=ORIENTED_EDGE('',*,*,#180,.F.);
#104=ORIENTED_EDGE('',*,*,#179,.F.);
#105=ORIENTED_EDGE('',*,*,#181,.T.);
#106=ORIENTED_EDGE('',*,*,#177,.F.);
#107=ORIENTED_EDGE('',*,*,#181,.F.);
#108=ORIENTED_EDGE('',*,*,#180,.T.);
#109=ORIENTED_EDGE('',*,*,#175,.F.);
#110=ORIENTED_EDGE('',*,*,#166,.T.);
#111=ORIENTED_EDGE('',*,*,#144,.T.);
#112=ORIENTED_EDGE('',*,*,#168,.T.);
#113=ORIENTED_EDGE('',*,*,#162,.T.);
#114=ORIENTED_EDGE('',*,*,#153,.T.);
#115=ORIENTED_EDGE('',*,*,#158,.T.);
#116=ORIENTED_EDGE('',*,*,#135,.F.);
#117=ORIENTED_EDGE('',*,*,#156,.F.);
#118=ORIENTED_EDGE('',*,*,#182,.T.);
#119=ORIENTED_EDGE('',*,*,#138,.F.);
#120=ORIENTED_EDGE('',*,*,#183,.F.);
#121=ORIENTED_EDGE('',*,*,#149,.F.);
#122=ORIENTED_EDGE('',*,*,#150,.T.);
#123=ORIENTED_EDGE('',*,*,#183,.T.);
#124=ORIENTED_EDGE('',*,*,#141,.T.);
#125=ORIENTED_EDGE('',*,*,#184,.F.);
#126=ORIENTED_EDGE('',*,*,#151,.T.);
#127=ORIENTED_EDGE('',*,*,#184,.T.);
#128=ORIENTED_EDGE('',*,*,#140,.T.);
#129=ORIENTED_EDGE('',*,*,#185,.F.);
#130=ORIENTED_EDGE('',*,*,#185,.T.);
#131=ORIENTED_EDGE('',*,*,#139,.F.);
#132=ORIENTED_EDGE('',*,*,#182,.F.);
#133=ORIENTED_EDGE('',*,*,#148,.F.);
#134=EDGE_CURVE('',#186,#187,#226,.T.);
#135=EDGE_CURVE('',#187,#188,#227,.T.);
#136=EDGE_CURVE('',#189,#188,#228,.T.);
#137=EDGE_CURVE('',#186,#189,#229,.T.);
#138=EDGE_CURVE('',#190,#191,#230,.T.);
#139=EDGE_CURVE('',#191,#192,#231,.T.);
#140=EDGE_CURVE('',#193,#192,#232,.T.);
#141=EDGE_CURVE('',#190,#193,#233,.T.);
#142=EDGE_CURVE('',#194,#195,#234,.T.);
#143=EDGE_CURVE('',#196,#195,#235,.T.);
#144=EDGE_CURVE('',#197,#196,#236,.T.);
#145=EDGE_CURVE('',#197,#198,#237,.T.);
#146=EDGE_CURVE('',#199,#198,#238,.T.);
#147=EDGE_CURVE('',#199,#194,#239,.T.);
#148=EDGE_CURVE('',#200,#201,#240,.T.);
#149=EDGE_CURVE('',#201,#202,#241,.T.);
#150=EDGE_CURVE('',#203,#202,#242,.T.);
#151=EDGE_CURVE('',#200,#203,#243,.T.);
#152=EDGE_CURVE('',#204,#205,#244,.T.);
#153=EDGE_CURVE('',#206,#205,#245,.T.);
#154=EDGE_CURVE('',#207,#206,#246,.T.);
#155=EDGE_CURVE('',#207,#204,#247,.T.);
#156=EDGE_CURVE('',#206,#187,#248,.T.);
#157=EDGE_CURVE('',#207,#186,#249,.T.);
#158=EDGE_CURVE('',#205,#188,#250,.T.);
#159=EDGE_CURVE('',#204,#189,#251,.T.);
#160=EDGE_CURVE('',#208,#209,#252,.T.);
#161=EDGE_CURVE('',#210,#209,#253,.T.);
#162=EDGE_CURVE('',#211,#210,#254,.T.);
#163=EDGE_CURVE('',#211,#212,#255,.T.);
#164=EDGE_CURVE('',#213,#212,#256,.T.);
#165=EDGE_CURVE('',#213,#208,#257,.T.);
#166=EDGE_CURVE('',#210,#197,#258,.T.);
#167=EDGE_CURVE('',#208,#199,#259,.T.);
#168=EDGE_CURVE('',#196,#211,#260,.T.);
#169=EDGE_CURVE('',#194,#213,#261,.T.);
#170=EDGE_CURVE('',#214,#214,#12,.T.);
#171=EDGE_CURVE('',#215,#215,#13,.T.);
#172=EDGE_CURVE('',#216,#216,#14,.T.);
#173=EDGE_CURVE('',#217,#217,#15,.T.);
#174=EDGE_CURVE('',#218,#218,#16,.T.);
#175=EDGE_CURVE('',#219,#219,#17,.T.);
#176=EDGE_CURVE('',#220,#220,#18,.T.);
#177=EDGE_CURVE('',#221,#221,#19,.T.);
#178=EDGE_CURVE('',#222,#222,#20,.T.);
#179=EDGE_CURVE('',#223,#223,#21,.T.);
#180=EDGE_CURVE('',#224,#224,#22,.T.);
#181=EDGE_CURVE('',#225,#225,#23,.T.);
#182=EDGE_CURVE('',#201,#191,#262,.T.);
#183=EDGE_CURVE('',#202,#190,#263,.T.);
#184=EDGE_CURVE('',#203,#193,#264,.T.);
#185=EDGE_CURVE('',#200,#192,#265,.T.);
#186=VERTEX_POINT('',#613);
#187=VERTEX_POINT('',#614);
#188=VERTEX_POINT('',#616);
#189=VERTEX_POINT('',#618);
#190=VERTEX_POINT('',#621);
#191=VERTEX_POINT('',#622);
#192=VERTEX_POINT('',#624);
#193=VERTEX_POINT('',#626);
#194=VERTEX_POINT('',#630);
#195=VERTEX_POINT('',#631);
#196=VERTEX_POINT('',#633);
#197=VERTEX_POINT('',#635);
#198=VERTEX_POINT('',#637);
#199=VERTEX_POINT('',#639);
#200=VERTEX_POINT('',#642);
#201=VERTEX_POINT('',#643);
#202=VERTEX_POINT('',#645);
#203=VERTEX_POINT('',#647);
#204=VERTEX_POINT('',#651);
#205=VERTEX_POINT('',#652);
#206=VERTEX_POINT('',#654);
#207=VERTEX_POINT('',#656);
#208=VERTEX_POINT('',#667);
#209=VERTEX_POINT('',#668);
#210=VERTEX_POINT('',#670);
#211=VERTEX_POINT('',#672);
#212=VERTEX_POINT('',#674);
#213=VERTEX_POINT('',#676);
#214=VERTEX_POINT('',#686);
#215=VERTEX_POINT('',#688);
#216=VERTEX_POINT('',#691);
#217=VERTEX_POINT('',#693);
#218=VERTEX_POINT('',#696);
#219=VERTEX_POINT('',#698);
#220=VERTEX_POINT('',#702);
#221=VERTEX_POINT('',#705);
#222=VERTEX_POINT('',#708);
#223=VERTEX_POINT('',#712);
#224=VERTEX_POINT('',#714);
#225=VERTEX_POINT('',#718);
#226=LINE('',#612,#266);
#227=LINE('',#615,#267);
#228=LINE('',#617,#268);
#229=LINE('',#619,#269);
#230=LINE('',#620,#270);
#231=LINE('',#623,#271);
#232=LINE('',#625,#272);
#233=LINE('',#627,#273);
#234=LINE('',#629,#274);
#235=LINE('',#632,#275);
#236=LINE('',#634,#276);
#237=LINE('',#636,#277);
#238=LINE('',#638,#278);
#239=LINE('',#640,#279);
#240=LINE('',#641,#280);
#241=LINE('',#644,#281);
#242=LINE('',#646,#282);
#243=LINE('',#648,#283);
#244=LINE('',#650,#284);
#245=LINE('',#653,#285);
#246=LINE('',#655,#286);
#247=LINE('',#657,#287);
#248=LINE('',#659,#288);
#249=LINE('',#660,#289);
#250=LINE('',#662,#290);
#251=LINE('',#663,#291);
#252=LINE('',#666,#292);
#253=LINE('',#669,#293);
#254=LINE('',#671,#294);
#255=LINE('',#673,#295);
#256=LINE('',#675,#296);
#257=LINE('',#677,#297);
#258=LINE('',#679,#298);
#259=LINE('',#680,#299);
#260=LINE('',#682,#300);
#261=LINE('',#683,#301);
#262=LINE('',#723,#302);
#263=LINE('',#724,#303);
#264=LINE('',#726,#304);
#265=LINE('',#728,#305);
#266=VECTOR('',#494,1.);
#267=VECTOR('',#495,1.);
#268=VECTOR('',#496,1.);
#269=VECTOR('',#497,1.);
#270=VECTOR('',#498,1.);
#271=VECTOR('',#499,1.);
#272=VECTOR('',#500,1.);
#273=VECTOR('',#501,1.);
#274=VECTOR('',#504,1.);
#275=VECTOR('',#505,1.);
#276=VECTOR('',#506,1.);
#277=VECTOR('',#507,1.);
#278=VECTOR('',#508,1.);
#279=VECTOR('',#509,1.);
#280=VECTOR('',#510,1.);
#281=VECTOR('',#511,1.);
#282=VECTOR('',#512,1.);
#283=VECTOR('',#513,1.);
#284=VECTOR('',#516,1.);
#285=VECTOR('',#517,1.);
#286=VECTOR('',#518,1.);
#287=VECTOR('',#519,1.);
#288=VECTOR('',#522,1.);
#289=VECTOR('',#523,1.);
#290=VECTOR('',#526,1.);
#291=VECTOR('',#527,1.);
#292=VECTOR('',#532,1.);
#293=VECTOR('',#533,1.);
#294=VECTOR('',#534,1.);
#295=VECTOR('',#535,1.);
#296=VECTOR('',#536,1.);
#297=VECTOR('',#537,1.);
#298=VECTOR('',#540,1.);
#299=VECTOR('',#541,1.);
#300=VECTOR('',#544,1.);
#301=VECTOR('',#545,1.);
#302=VECTOR('',#600,1.);
#303=VECTOR('',#601,1.);
#304=VECTOR('',#604,1.);
#305=VECTOR('',#607,1.);
#306=EDGE_LOOP('',(#30,#31,#32,#33));
#307=EDGE_LOOP('',(#34,#35,#36,#37));
#308=EDGE_LOOP('',(#38,#39,#40,#41,#42,#43));
#309=EDGE_LOOP('',(#44,#45,#46,#47));
#310=EDGE_LOOP('',(#48,#49,#50,#51));
#311=EDGE_LOOP('',(#52,#53,#54,#55));
#312=EDGE_LOOP('',(#56,#57,#58,#59));
#313=EDGE_LOOP('',(#60,#61,#62,#63));
#314=EDGE_LOOP('',(#64,#65,#66,#67,#68,#69));
#315=EDGE_LOOP('',(#70,#71,#72,#73,#74,#75));
#316=EDGE_LOOP('',(#76,#77,#78,#79,#80,#81));
#317=EDGE_LOOP('',(#82));
#318=EDGE_LOOP('',(#83));
#319=EDGE_LOOP('',(#84));
#320=EDGE_LOOP('',(#85));
#321=EDGE_LOOP('',(#86));
#322=EDGE_LOOP('',(#87));
#323=EDGE_LOOP('',(#88));
#324=EDGE_LOOP('',(#89));
#325=EDGE_LOOP('',(#90));
#326=EDGE_LOOP('',(#91,#92,#93,#94));
#327=EDGE_LOOP('',(#95));
#328=EDGE_LOOP('',(#96));
#329=EDGE_LOOP('',(#97));
#330=EDGE_LOOP('',(#98));
#331=EDGE_LOOP('',(#99));
#332=EDGE_LOOP('',(#100));
#333=EDGE_LOOP('',(#101));
#334=EDGE_LOOP('',(#102));
#335=EDGE_LOOP('',(#103));
#336=EDGE_LOOP('',(#104));
#337=EDGE_LOOP('',(#105));
#338=EDGE_LOOP('',(#106));
#339=EDGE_LOOP('',(#107));
#340=EDGE_LOOP('',(#108));
#341=EDGE_LOOP('',(#109));
#342=EDGE_LOOP('',(#110,#111,#112,#113));
#343=EDGE_LOOP('',(#114,#115,#116,#117));
#344=EDGE_LOOP('',(#118,#119,#120,#121));
#345=EDGE_LOOP('',(#122,#123,#124,#125));
#346=EDGE_LOOP('',(#126,#127,#128,#129));
#347=EDGE_LOOP('',(#130,#131,#132,#133));
#348=FACE_BOUND('',#306,.T.);
#349=FACE_BOUND('',#307,.T.);
#350=FACE_BOUND('',#308,.T.);
#351=FACE_BOUND('',#309,.T.);
#352=FACE_BOUND('',#310,.T.);
#353=FACE_BOUND('',#311,.T.);
#354=FACE_BOUND('',#312,.T.);
#355=FACE_BOUND('',#313,.T.);
#356=FACE_BOUND('',#314,.T.);
#357=FACE_BOUND('',#315,.T.);
#358=FACE_BOUND('',#316,.T.);
#359=FACE_BOUND('',#317,.T.);
#360=FACE_BOUND('',#318,.T.);
#361=FACE_BOUND('',#319,.T.);
#362=FACE_BOUND('',#320,.T.);
#363=FACE_BOUND('',#321,.T.);
#364=FACE_BOUND('',#322,.T.);
#365=FACE_BOUND('',#323,.T.);
#366=FACE_BOUND('',#324,.T.);
#367=FACE_BOUND('',#325,.T.);
#368=FACE_BOUND('',#326,.T.);
#369=FACE_BOUND('',#327,.T.);
#370=FACE_BOUND('',#328,.T.);
#371=FACE_BOUND('',#329,.T.);
#372=FACE_BOUND('',#330,.T.);
#373=FACE_BOUND('',#331,.T.);
#374=FACE_BOUND('',#332,.T.);
#375=FACE_BOUND('',#333,.T.);
#376=FACE_BOUND('',#334,.T.);
#377=FACE_BOUND('',#335,.T.);
#378=FACE_BOUND('',#336,.T.);
#379=FACE_BOUND('',#337,.T.);
#380=FACE_BOUND('',#338,.T.);
#381=FACE_BOUND('',#339,.T.);
#382=FACE_BOUND('',#340,.T.);
#383=FACE_BOUND('',#341,.T.);
#384=FACE_BOUND('',#342,.T.);
#385=FACE_BOUND('',#343,.T.);
#386=FACE_BOUND('',#344,.T.);
#387=FACE_BOUND('',#345,.T.);
#388=FACE_BOUND('',#346,.T.);
#389=FACE_BOUND('',#347,.T.);
#390=PLANE('',#451);
#391=PLANE('',#452);
#392=PLANE('',#453);
#393=PLANE('',#454);
#394=PLANE('',#455);
#395=PLANE('',#456);
#396=PLANE('',#457);
#397=PLANE('',#458);
#398=PLANE('',#459);
#399=PLANE('',#469);
#400=PLANE('',#470);
#401=PLANE('',#472);
#402=PLANE('',#476);
#403=PLANE('',#480);
#404=PLANE('',#483);
#405=PLANE('',#484);
#406=PLANE('',#485);
#407=PLANE('',#486);
#408=PLANE('',#487);
#409=PLANE('',#488);
#410=PLANE('',#489);
#411=ADVANCED_FACE('',(#348,#349),#390,.F.);
#412=ADVANCED_FACE('',(#350,#351),#391,.T.);
#413=ADVANCED_FACE('',(#352),#392,.T.);
#414=ADVANCED_FACE('',(#353),#393,.F.);
#415=ADVANCED_FACE('',(#354),#394,.T.);
#416=ADVANCED_FACE('',(#355),#395,.T.);
#417=ADVANCED_FACE('',(#356),#396,.T.);
#418=ADVANCED_FACE('',(#357),#397,.T.);
#419=ADVANCED_FACE('',(#358),#398,.T.);
#420=ADVANCED_FACE('',(#359,#360),#24,.T.);
#421=ADVANCED_FACE('',(#361,#362),#25,.T.);
#422=ADVANCED_FACE('',(#363,#364),#26,.T.);
#423=ADVANCED_FACE('',(#365,#366,#367,#368),#399,.F.);
#424=ADVANCED_FACE('',(#369,#370),#400,.F.);
#425=ADVANCED_FACE('',(#371,#372),#401,.F.);
#426=ADVANCED_FACE('',(#373,#374),#27,.F.);
#427=ADVANCED_FACE('',(#375),#402,.F.);
#428=ADVANCED_FACE('',(#376,#377),#28,.F.);
#429=ADVANCED_FACE('',(#378),#403,.F.);
#430=ADVANCED_FACE('',(#379,#380),#29,.F.);
#431=ADVANCED_FACE('',(#381),#404,.F.);
#432=ADVANCED_FACE('',(#382,#383),#405,.F.);
#433=ADVANCED_FACE('',(#384,#385),#406,.F.);
#434=ADVANCED_FACE('',(#386),#407,.T.);
#435=ADVANCED_FACE('',(#387),#408,.F.);
#436=ADVANCED_FACE('',(#388),#409,.F.);
#437=ADVANCED_FACE('',(#389),#410,.T.);
#438=CLOSED_SHELL('',(#411,#412,#413,#414,#415,#416,#417,#418,#419,#420,
#421,#422,#423,#424,#425,#426,#427,#428,#429,#430,#431,#432,#433,#434,#435,
#436,#437));
#439=STYLED_ITEM('',(#440),#447);
#440=PRESENTATION_STYLE_ASSIGNMENT((#441));
#441=SURFACE_STYLE_USAGE(.BOTH.,#442);
#442=SURFACE_SIDE_STYLE('',(#443));
#443=SURFACE_STYLE_FILL_AREA(#444);
#444=FILL_AREA_STYLE('',(#445));
#445=FILL_AREA_STYLE_COLOUR('',#446);
#446=COLOUR_RGB('',0.615686274509804,0.811764705882353,0.929411764705882);
#447=MANIFOLD_SOLID_BREP('Part 1',#438);
#448=SHAPE_DEFINITION_REPRESENTATION(#736,#449);
#449=SHAPE_REPRESENTATION('Part 1',(#450),#731);
#450=AXIS2_PLACEMENT_3D('',#610,#490,#491);
#451=AXIS2_PLACEMENT_3D('',#611,#492,#493);
#452=AXIS2_PLACEMENT_3D('',#628,#502,#503);
#453=AXIS2_PLACEMENT_3D('',#649,#514,#515);
#454=AXIS2_PLACEMENT_3D('',#658,#520,#521);
#455=AXIS2_PLACEMENT_3D('',#661,#524,#525);
#456=AXIS2_PLACEMENT_3D('',#664,#528,#529);
#457=AXIS2_PLACEMENT_3D('',#665,#530,#531);
#458=AXIS2_PLACEMENT_3D('',#678,#538,#539);
#459=AXIS2_PLACEMENT_3D('',#681,#542,#543);
#460=AXIS2_PLACEMENT_3D('',#684,#546,#547);
#461=AXIS2_PLACEMENT_3D('',#685,#548,#549);
#462=AXIS2_PLACEMENT_3D('',#687,#550,#551);
#463=AXIS2_PLACEMENT_3D('',#689,#552,#553);
#464=AXIS2_PLACEMENT_3D('',#690,#554,#555);
#465=AXIS2_PLACEMENT_3D('',#692,#556,#557);
#466=AXIS2_PLACEMENT_3D('',#694,#558,#559);
#467=AXIS2_PLACEMENT_3D('',#695,#560,#561);
#468=AXIS2_PLACEMENT_3D('',#697,#562,#563);
#469=AXIS2_PLACEMENT_3D('',#699,#564,#565);
#470=AXIS2_PLACEMENT_3D('',#700,#566,#567);
#471=AXIS2_PLACEMENT_3D('',#701,#568,#569);
#472=AXIS2_PLACEMENT_3D('',#703,#570,#571);
#473=AXIS2_PLACEMENT_3D('',#704,#572,#573);
#474=AXIS2_PLACEMENT_3D('',#706,#574,#575);
#475=AXIS2_PLACEMENT_3D('',#707,#576,#577);
#476=AXIS2_PLACEMENT_3D('',#709,#578,#579);
#477=AXIS2_PLACEMENT_3D('',#710,#580,#581);
#478=AXIS2_PLACEMENT_3D('',#711,#582,#583);
#479=AXIS2_PLACEMENT_3D('',#713,#584,#585);
#480=AXIS2_PLACEMENT_3D('',#715,#586,#587);
#481=AXIS2_PLACEMENT_3D('',#716,#588,#589);
#482=AXIS2_PLACEMENT_3D('',#717,#590,#591);
#483=AXIS2_PLACEMENT_3D('',#719,#592,#593);
#484=AXIS2_PLACEMENT_3D('',#720,#594,#595);
#485=AXIS2_PLACEMENT_3D('',#721,#596,#597);
#486=AXIS2_PLACEMENT_3D('',#722,#598,#599);
#487=AXIS2_PLACEMENT_3D('',#725,#602,#603);
#488=AXIS2_PLACEMENT_3D('',#727,#605,#606);
#489=AXIS2_PLACEMENT_3D('',#729,#608,#609);
#490=DIRECTION('',(0.,0.,1.));
#491=DIRECTION('',(1.,0.,0.));
#492=DIRECTION('',(0.,-1.,0.));
#493=DIRECTION('',(0.,0.,-1.));
#494=DIRECTION('',(0.,0.,1.));
#495=DIRECTION('',(1.,0.,0.));
#496=DIRECTION('',(0.,0.,1.));
#497=DIRECTION('',(1.,0.,0.));
#498=DIRECTION('',(-1.,0.,0.));
#499=DIRECTION('',(0.,0.,-1.));
#500=DIRECTION('',(-1.,0.,0.));
#501=DIRECTION('',(0.,0.,-1.));
#502=DIRECTION('',(0.,-1.,0.));
#503=DIRECTION('',(0.,0.,-1.));
#504=DIRECTION('',(0.,0.,1.));
#505=DIRECTION('',(0.,0.,-1.));
#506=DIRECTION('',(1.,0.,0.));
#507=DIRECTION('',(0.,0.,-1.));
#508=DIRECTION('',(0.,0.,1.));
#509=DIRECTION('',(1.,0.,0.));
#510=DIRECTION('',(0.,0.,1.));
#511=DIRECTION('',(1.,0.,0.));
#512=DIRECTION('',(0.,0.,1.));
#513=DIRECTION('',(1.,0.,0.));
#514=DIRECTION('',(0.,-1.,0.));
#515=DIRECTION('',(0.,0.,-1.));
#516=DIRECTION('',(0.,0.,1.));
#517=DIRECTION('',(1.,0.,0.));
#518=DIRECTION('',(0.,0.,1.));
#519=DIRECTION('',(1.,0.,0.));
#520=DIRECTION('',(1.,-8.64401164001698E-17,0.));
#521=DIRECTION('',(8.64401164001698E-17,1.,0.));
#522=DIRECTION('',(8.64401164001698E-17,1.,0.));
#523=DIRECTION('',(8.64401164001698E-17,1.,0.));
#524=DIRECTION('',(1.,0.,0.));
#525=DIRECTION('',(0.,0.,-1.));
#526=DIRECTION('',(0.,1.,0.));
#527=DIRECTION('',(0.,1.,0.));
#528=DIRECTION('',(0.,0.,-1.));
#529=DIRECTION('',(1.,0.,0.));
#530=DIRECTION('',(0.,1.,0.));
#531=DIRECTION('',(0.,0.,1.));
#532=DIRECTION('',(0.,0.,1.));
#533=DIRECTION('',(0.,0.,-1.));
#534=DIRECTION('',(-1.,0.,0.));
#535=DIRECTION('',(0.,0.,-1.));
#536=DIRECTION('',(0.,0.,1.));
#537=DIRECTION('',(-1.,0.,0.));
#538=DIRECTION('',(1.,0.,0.));
#539=DIRECTION('',(0.,0.,-1.));
#540=DIRECTION('',(0.,1.,0.));
#541=DIRECTION('',(0.,1.,0.));
#542=DIRECTION('',(-1.,0.,0.));
#543=DIRECTION('',(0.,0.,1.));
#544=DIRECTION('',(0.,-1.,0.));
#545=DIRECTION('',(0.,-1.,0.));
#546=DIRECTION('',(0.,0.,1.));
#547=DIRECTION('',(1.,0.,0.));
#548=DIRECTION('',(0.,0.,-1.));
#549=DIRECTION('',(-1.,0.,0.));
#550=DIRECTION('',(0.,0.,-1.));
#551=DIRECTION('',(-1.,0.,0.));
#552=DIRECTION('',(0.,0.,1.));
#553=DIRECTION('',(1.,0.,0.));
#554=DIRECTION('',(0.,0.,-1.));
#555=DIRECTION('',(-1.,0.,0.));
#556=DIRECTION('',(0.,0.,-1.));
#557=DIRECTION('',(-1.,0.,0.));
#558=DIRECTION('',(0.,0.,1.));
#559=DIRECTION('',(1.,0.,0.));
#560=DIRECTION('',(0.,0.,-1.));
#561=DIRECTION('',(-1.,0.,0.));
#562=DIRECTION('',(0.,0.,-1.));
#563=DIRECTION('',(-1.,0.,0.));
#564=DIRECTION('',(0.,0.,-1.));
#565=DIRECTION('',(1.,0.,0.));
#566=DIRECTION('',(0.,0.,-1.));
#567=DIRECTION('',(1.,0.,0.));
#568=DIRECTION('',(0.,0.,-1.));
#569=DIRECTION('',(-1.,0.,0.));
#570=DIRECTION('',(0.,0.,-1.));
#571=DIRECTION('',(1.,0.,0.));
#572=DIRECTION('',(0.,0.,-1.));
#573=DIRECTION('',(-1.,0.,0.));
#574=DIRECTION('',(0.,0.,1.));
#575=DIRECTION('',(1.,0.,0.));
#576=DIRECTION('',(0.,0.,-1.));
#577=DIRECTION('',(-1.,0.,0.));
#578=DIRECTION('',(0.,0.,-1.));
#579=DIRECTION('',(1.,0.,0.));
#580=DIRECTION('',(0.,0.,1.));
#581=DIRECTION('',(1.,0.,0.));
#582=DIRECTION('',(0.,0.,-1.));
#583=DIRECTION('',(-1.,0.,0.));
#584=DIRECTION('',(0.,0.,-1.));
#585=DIRECTION('',(-1.,0.,0.));
#586=DIRECTION('',(0.,0.,-1.));
#587=DIRECTION('',(1.,0.,0.));
#588=DIRECTION('',(0.,0.,1.));
#589=DIRECTION('',(1.,0.,0.));
#590=DIRECTION('',(0.,0.,-1.));
#591=DIRECTION('',(-1.,0.,0.));
#592=DIRECTION('',(0.,0.,-1.));
#593=DIRECTION('',(1.,0.,0.));
#594=DIRECTION('',(0.,0.,-1.));
#595=DIRECTION('',(1.,0.,0.));
#596=DIRECTION('',(0.,0.,-1.));
#597=DIRECTION('',(1.,0.,0.));
#598=DIRECTION('',(0.,0.,-1.));
#599=DIRECTION('',(-1.,0.,0.));
#600=DIRECTION('',(0.,1.,0.));
#601=DIRECTION('',(0.,1.,0.));
#602=DIRECTION('',(1.,0.,0.));
#603=DIRECTION('',(0.,0.,-1.));
#604=DIRECTION('',(0.,1.,0.));
#605=DIRECTION('',(0.,0.,-1.));
#606=DIRECTION('',(-1.,0.,0.));
#607=DIRECTION('',(0.,1.,0.));
#608=DIRECTION('',(1.,0.,0.));
#609=DIRECTION('',(0.,0.,-1.));
#610=CARTESIAN_POINT('',(0.,0.,0.));
#611=CARTESIAN_POINT('',(0.148799,-0.053341,-0.00505));
#612=CARTESIAN_POINT('',(0.022789,-0.053341,-0.00505));
#613=CARTESIAN_POINT('',(0.022789,-0.053341,-0.00505));
#614=CARTESIAN_POINT('',(0.022789,-0.053341,0.01095));
#615=CARTESIAN_POINT('',(0.148799,-0.053341,0.01095));
#616=CARTESIAN_POINT('',(0.274809,-0.053341,0.01095));
#617=CARTESIAN_POINT('',(0.274809,-0.053341,-0.00505));
#618=CARTESIAN_POINT('',(0.274809,-0.053341,-0.00505));
#619=CARTESIAN_POINT('',(0.148799,-0.053341,-0.00505));
#620=CARTESIAN_POINT('',(0.148808468732834,-0.053341,0.00638));
#621=CARTESIAN_POINT('',(0.153808468732834,-0.053341,0.00638));
#622=CARTESIAN_POINT('',(0.143808468732834,-0.053341,0.00638));
#623=CARTESIAN_POINT('',(0.143808468732834,-0.053341,0.00388));
#624=CARTESIAN_POINT('',(0.143808468732834,-0.053341,0.00138));
#625=CARTESIAN_POINT('',(0.148808468732834,-0.053341,0.00138));
#626=CARTESIAN_POINT('',(0.153808468732834,-0.053341,0.00138));
#627=CARTESIAN_POINT('',(0.153808468732834,-0.053341,0.00388));
#628=CARTESIAN_POINT('',(0.024789,-0.055341,-0.00405));
#629=CARTESIAN_POINT('',(0.272809,-0.055341,-0.00405));
#630=CARTESIAN_POINT('',(0.272809,-0.055341,-0.00405));
#631=CARTESIAN_POINT('',(0.272809,-0.055341,-5.E-5));
#632=CARTESIAN_POINT('',(0.272809,-0.055341,0.01095));
#633=CARTESIAN_POINT('',(0.272809,-0.055341,0.01095));
#634=CARTESIAN_POINT('',(0.024789,-0.055341,0.01095));
#635=CARTESIAN_POINT('',(0.024789,-0.055341,0.01095));
#636=CARTESIAN_POINT('',(0.024789,-0.055341,0.01095));
#637=CARTESIAN_POINT('',(0.024789,-0.055341,-5.E-5));
#638=CARTESIAN_POINT('',(0.024789,-0.055341,-0.00405));
#639=CARTESIAN_POINT('',(0.024789,-0.055341,-0.00405));
#640=CARTESIAN_POINT('',(0.024789,-0.055341,-0.00405));
#641=CARTESIAN_POINT('',(0.143808468732834,-0.055341,-0.00405));
#642=CARTESIAN_POINT('',(0.143808468732834,-0.055341,0.00138));
#643=CARTESIAN_POINT('',(0.143808468732834,-0.055341,0.00638));
#644=CARTESIAN_POINT('',(0.024789,-0.055341,0.00638));
#645=CARTESIAN_POINT('',(0.153808468732834,-0.055341,0.00638));
#646=CARTESIAN_POINT('',(0.153808468732834,-0.055341,-0.00405));
#647=CARTESIAN_POINT('',(0.153808468732834,-0.055341,0.00138));
#648=CARTESIAN_POINT('',(0.024789,-0.055341,0.00138));
#649=CARTESIAN_POINT('',(0.148799,-0.133615,-0.00505));
#650=CARTESIAN_POINT('',(0.274809,-0.133615,-0.00505));
#651=CARTESIAN_POINT('',(0.274809,-0.133615,-0.00505));
#652=CARTESIAN_POINT('',(0.274809,-0.133615,0.01095));
#653=CARTESIAN_POINT('',(0.148799,-0.133615,0.01095));
#654=CARTESIAN_POINT('',(0.022789,-0.133615,0.01095));
#655=CARTESIAN_POINT('',(0.022789,-0.133615,-0.00505));
#656=CARTESIAN_POINT('',(0.022789,-0.133615,-0.00505));
#657=CARTESIAN_POINT('',(0.148799,-0.133615,-0.00505));
#658=CARTESIAN_POINT('',(0.022789,-0.093478,-0.00505));
#659=CARTESIAN_POINT('',(0.022789,-0.093478,0.01095));
#660=CARTESIAN_POINT('',(0.022789,-0.093478,-0.00505));
#661=CARTESIAN_POINT('',(0.274809,-0.093478,-0.00505));
#662=CARTESIAN_POINT('',(0.274809,-0.093478,0.01095));
#663=CARTESIAN_POINT('',(0.274809,-0.093478,-0.00505));
#664=CARTESIAN_POINT('',(0.148799,-0.093478,-0.00505));
#665=CARTESIAN_POINT('',(0.272809,-0.131615,-0.00405));
#666=CARTESIAN_POINT('',(0.024789,-0.131615,-0.00405));
#667=CARTESIAN_POINT('',(0.024789,-0.131615,-0.00405));
#668=CARTESIAN_POINT('',(0.024789,-0.131615,-5.E-5));
#669=CARTESIAN_POINT('',(0.024789,-0.131615,0.01095));
#670=CARTESIAN_POINT('',(0.024789,-0.131615,0.01095));
#671=CARTESIAN_POINT('',(0.272809,-0.131615,0.01095));
#672=CARTESIAN_POINT('',(0.272809,-0.131615,0.01095));
#673=CARTESIAN_POINT('',(0.272809,-0.131615,0.01095));
#674=CARTESIAN_POINT('',(0.272809,-0.131615,-5.E-5));
#675=CARTESIAN_POINT('',(0.272809,-0.131615,-0.00405));
#676=CARTESIAN_POINT('',(0.272809,-0.131615,-0.00405));
#677=CARTESIAN_POINT('',(0.272809,-0.131615,-0.00405));
#678=CARTESIAN_POINT('',(0.024789,-0.131615,-0.00405));
#679=CARTESIAN_POINT('',(0.024789,-0.131615,0.01095));
#680=CARTESIAN_POINT('',(0.024789,-0.131615,-0.00405));
#681=CARTESIAN_POINT('',(0.272809,-0.055341,-0.00405));
#682=CARTESIAN_POINT('',(0.272809,-0.055341,0.01095));
#683=CARTESIAN_POINT('',(0.272809,-0.055341,-0.00405));
#684=CARTESIAN_POINT('',(0.244049,-0.122051,-0.00405));
#685=CARTESIAN_POINT('',(0.244049,-0.122051,-0.00405));
#686=CARTESIAN_POINT('',(0.240899,-0.122051,-0.00405));
#687=CARTESIAN_POINT('',(0.244049,-0.122051,-5.E-5));
#688=CARTESIAN_POINT('',(0.240899,-0.122051,-5.E-5));
#689=CARTESIAN_POINT('',(0.053549,-0.122051,-0.00405));
#690=CARTESIAN_POINT('',(0.053549,-0.122051,-0.00405));
#691=CARTESIAN_POINT('',(0.050399,-0.122051,-0.00405));
#692=CARTESIAN_POINT('',(0.053549,-0.122051,-5.E-5));
#693=CARTESIAN_POINT('',(0.050399,-0.122051,-5.E-5));
#694=CARTESIAN_POINT('',(0.148799,-0.08262,-0.00405));
#695=CARTESIAN_POINT('',(0.148799,-0.08262,-0.00405));
#696=CARTESIAN_POINT('',(0.145649,-0.08262,-0.00405));
#697=CARTESIAN_POINT('',(0.148799,-0.08262,-5.E-5));
#698=CARTESIAN_POINT('',(0.145649,-0.08262,-5.E-5));
#699=CARTESIAN_POINT('',(0.148799,-0.093478,-0.00405));
#700=CARTESIAN_POINT('',(0.148799,-0.093478,-5.E-5));
#701=CARTESIAN_POINT('',(0.053549,-0.122051,-5.E-5));
#702=CARTESIAN_POINT('',(0.051399,-0.122051,-5.E-5));
#703=CARTESIAN_POINT('',(0.148799,-0.093478,-5.E-5));
#704=CARTESIAN_POINT('',(0.244049,-0.122051,-5.E-5));
#705=CARTESIAN_POINT('',(0.241899,-0.122051,-5.E-5));
#706=CARTESIAN_POINT('',(0.053549,-0.122051,-0.00405));
#707=CARTESIAN_POINT('',(0.053549,-0.122051,-0.00405));
#708=CARTESIAN_POINT('',(0.051399,-0.122051,-0.00405));
#709=CARTESIAN_POINT('',(0.148799,-0.093478,-0.00405));
#710=CARTESIAN_POINT('',(0.148799,-0.08262,-0.00405));
#711=CARTESIAN_POINT('',(0.148799,-0.08262,-0.00405));
#712=CARTESIAN_POINT('',(0.146649,-0.08262,-0.00405));
#713=CARTESIAN_POINT('',(0.148799,-0.08262,-5.E-5));
#714=CARTESIAN_POINT('',(0.146649,-0.08262,-5.E-5));
#715=CARTESIAN_POINT('',(0.148799,-0.093478,-0.00405));
#716=CARTESIAN_POINT('',(0.244049,-0.122051,-0.00405));
#717=CARTESIAN_POINT('',(0.244049,-0.122051,-0.00405));
#718=CARTESIAN_POINT('',(0.241899,-0.122051,-0.00405));
#719=CARTESIAN_POINT('',(0.148799,-0.093478,-0.00405));
#720=CARTESIAN_POINT('',(0.148799,-0.093478,-5.E-5));
#721=CARTESIAN_POINT('',(0.148799,-0.093478,0.01095));
#722=CARTESIAN_POINT('',(0.148808468732834,-0.101241,0.00638));
#723=CARTESIAN_POINT('',(0.143808468732834,-0.101241,0.00638));
#724=CARTESIAN_POINT('',(0.153808468732834,-0.101241,0.00638));
#725=CARTESIAN_POINT('',(0.153808468732834,-0.101241,0.00388));
#726=CARTESIAN_POINT('',(0.153808468732834,-0.101241,0.00138));
#727=CARTESIAN_POINT('',(0.148808468732834,-0.101241,0.00138));
#728=CARTESIAN_POINT('',(0.143808468732834,-0.101241,0.00138));
#729=CARTESIAN_POINT('',(0.143808468732834,-0.101241,0.00388));
#730=MECHANICAL_DESIGN_GEOMETRIC_PRESENTATION_REPRESENTATION('',(#439),
#731);
#731=(
GEOMETRIC_REPRESENTATION_CONTEXT(3)
GLOBAL_UNCERTAINTY_ASSIGNED_CONTEXT((#732))
GLOBAL_UNIT_ASSIGNED_CONTEXT((#735,#734,#733))
REPRESENTATION_CONTEXT('Part 1','TOP_LEVEL_ASSEMBLY_PART')
);
#732=UNCERTAINTY_MEASURE_WITH_UNIT(LENGTH_MEASURE(2.2E-7),#735,
'DISTANCE_ACCURACY_VALUE','Maximum Tolerance applied to model');
#733=(
NAMED_UNIT(*)
SI_UNIT($,.STERADIAN.)
SOLID_ANGLE_UNIT()
);
#734=(
NAMED_UNIT(*)
PLANE_ANGLE_UNIT()
SI_UNIT($,.RADIAN.)
);
#735=(
LENGTH_UNIT()
NAMED_UNIT(*)
SI_UNIT($,.METRE.)
);
#736=PRODUCT_DEFINITION_SHAPE('','',#737);
#737=PRODUCT_DEFINITION('','',#739,#738);
#738=PRODUCT_DEFINITION_CONTEXT('',#745,'design');
#739=PRODUCT_DEFINITION_FORMATION_WITH_SPECIFIED_SOURCE('','',#741,
 .NOT_KNOWN.);
#740=PRODUCT_RELATED_PRODUCT_CATEGORY('','',(#741));
#741=PRODUCT('Part 1','Part 1','Part 1',(#743));
#742=PRODUCT_CATEGORY('','');
#743=PRODUCT_CONTEXT('',#745,'mechanical');
#744=APPLICATION_PROTOCOL_DEFINITION('international standard',
'ap242_managed_model_based_3d_engineering',2020,#745);
#745=APPLICATION_CONTEXT('managed model based 3d engineering');
ENDSEC;
END-ISO-10303-21;
